<?xml version="1.0" encoding="UTF-8"?>
<!DOCTYPE svg PUBLIC "-//W3C//DTD SVG 1.1//EN" "http://www.w3.org/Graphics/SVG/1.1/DTD/svg11.dtd">
<svg version="1.1" xmlns="http://www.w3.org/2000/svg" xmlns:xlink="http://www.w3.org/1999/xlink" x="0" y="0" width="33.6" height="57.6" viewBox="0, 0, 28, 48">
  <g id="Layer_1">
    <g id="pencil_cup">
      <path d="M15.432,35.41 L14.98,36.761 C14.7,37.597 15.128,38.433 15.93,38.618 L16.766,38.81 C17.569,38.993 18.454,38.459 18.734,37.624 L19.186,36.272 L15.432,35.41" fill="#B25731"/>
      <path d="M26.028,12.833 L26.956,13.045 L19.721,34.673 L18.794,34.459 L26.028,12.833" fill="#50753B"/>
      <path d="M23.201,12.182 L24.129,12.396 L16.895,34.022 L15.967,33.81 L23.201,12.182" fill="#50753B"/>
      <path d="M24.129,12.396 L26.028,12.833 L18.794,34.459 L16.895,34.022 L24.129,12.396" fill="#86A74A"/>
      <path d="M27.376,5.744 L23.201,12.182 L26.955,13.045 L27.376,5.744" fill="#EFCB9D"/>
      <path d="M15.967,33.81 L19.721,34.673 L18.911,37.097 L15.156,36.234 L15.967,33.81" fill="#BDBFBC"/>
      <path d="M18.794,34.459 L19.721,34.673 L18.911,37.097 L17.983,36.883 L18.794,34.459" fill="#979A98"/>
      <path d="M15.967,33.81 L16.895,34.022 L16.084,36.446 L15.156,36.234 L15.967,33.81" fill="#979A98"/>
      <path d="M19.721,34.673 L19.721,34.673 L18.794,34.459 L18.84,34.319 L19.768,34.533 L19.721,34.673" fill="#456034"/>
      <path d="M16.895,34.022 L15.967,33.81 L16.014,33.669 L16.942,33.882 L16.895,34.022" fill="#456034"/>
      <path d="M18.794,34.459 L16.895,34.022 L16.942,33.882 L18.84,34.319 L18.794,34.459" fill="#728842"/>
      <path d="M19.721,34.673 L19.721,34.673 L15.967,33.81 L16.895,34.022 L18.794,34.459 L19.721,34.673" fill="#978F77"/>
      <path d="M26.268,7.453 L27.265,7.682 L27.376,5.744 L26.268,7.453" fill="#15130E"/>
      <path d="M8.238,37.158 L8.671,38.569 C8.94,39.443 9.728,39.982 10.422,39.77 L11.145,39.548 C11.84,39.334 12.189,38.444 11.921,37.57 L11.488,36.16 L8.238,37.158" fill="#B25731"/>
      <path d="M3.239,12.155 L4.042,11.908 L10.975,34.489 L10.172,34.736 L3.239,12.155" fill="#CD8233"/>
      <path d="M0.792,12.906 L1.595,12.658 L8.528,35.241 L7.725,35.487 L0.792,12.906" fill="#CD8233"/>
      <path d="M1.595,12.658 L3.239,12.155 L10.172,34.736 L8.528,35.241 L1.595,12.658" fill="#F0B039"/>
      <path d="M0.214,5.233 L0.792,12.906 L4.042,11.908 L0.214,5.233" fill="#EFCB9D"/>
      <path d="M7.725,35.487 L10.975,34.489 L11.752,37.021 L8.502,38.019 L7.725,35.487" fill="#BDBFBC"/>
      <path d="M10.172,34.736 L10.975,34.489 L11.752,37.021 L10.949,37.266 L10.172,34.736" fill="#979A98"/>
      <path d="M7.725,35.487 L8.528,35.241 L9.305,37.771 L8.502,38.019 L7.725,35.487" fill="#979A98"/>
      <path d="M10.172,34.736 L10.127,34.59 L10.93,34.343 L10.975,34.489 L10.172,34.736" fill="#A6682F"/>
      <path d="M7.725,35.487 L7.725,35.487 L7.68,35.34 L8.483,35.095 L8.528,35.241 L7.725,35.487" fill="#A6682F"/>
      <path d="M8.528,35.241 L8.483,35.095 L10.127,34.59 L10.172,34.736 L8.528,35.241" fill="#C08936"/>
      <path d="M7.725,35.487 L7.725,35.487 L10.172,34.736 L10.975,34.489 L7.725,35.487" fill="#978F77"/>
      <path d="M0.368,7.269 L1.23,7.004 L0.214,5.233 L0.368,7.269" fill="#15130E"/>
      <path d="M4.311,-0.005 L6.563,7.33 L5.123,7.772 L3.606,4.225 C3.606,4.225 4.587,2.352 4.311,-0.005" fill="#B2B3B2"/>
      <path d="M4.311,-0.005 L6.563,7.33 L8.003,6.887 L7.268,3.101 C7.268,3.101 5.406,2.102 4.311,-0.005" fill="#C6C7C6"/>
      <path d="M14.134,39.055 C13.798,37.959 14.413,36.799 15.508,36.464 C16.603,36.127 17.763,36.743 18.099,37.838 C18.436,38.932 17.82,40.092 16.725,40.429 C15.63,40.764 14.47,40.15 14.134,39.055" fill="#C7E1BF"/>
      <path d="M9.765,24.986 L13.821,23.74 L18.145,37.824 L14.089,39.069 L9.765,24.986" fill="#84BF4D"/>
      <path d="M17.947,37.884 L8.355,6.64 L4.693,7.764 L14.286,39.008 L17.947,37.884" fill="#84BF4D"/>
      <path d="M9.765,24.986 L13.821,23.74 L14.533,26.059 L10.477,27.303 L9.765,24.986" fill="#449C49"/>
      <path d="M13.916,38.506 L17.972,37.261 L18.057,37.539 L14.001,38.785 L13.916,38.506" fill="#449C49"/>
      <path d="M4.693,7.764 L8.355,6.64 L8.707,7.787 L5.046,8.911 L4.693,7.764" fill="#449C49"/>
      <path d="M19.094,37.037 C19.285,36.979 19.391,36.778 19.333,36.588 L15.675,24.671 C15.616,24.482 15.414,24.375 15.224,24.434 C15.034,24.492 14.927,24.694 14.986,24.883 L18.644,36.799 C18.702,36.989 18.904,37.097 19.094,37.037" fill="#449C49"/>
      <path d="M15.727,27.296 L15.013,24.972 C14.765,25.048 14.724,25.629 14.921,26.271 C15.118,26.913 15.479,27.372 15.727,27.296" fill="#449C49"/>
      <path d="M18.85,36.869 C18.85,36.869 18.67,37.334 18.271,37.633 L17.991,36.722 C17.991,36.722 18.376,36.02 18.298,35.074 C18.066,34.315 18.85,36.869 18.85,36.869" fill="#449C49"/>
      <path d="M21.544,48.006 L7.215,48.006 C5.882,48.006 4.757,47.014 4.588,45.693 L0.973,17.393 L27.786,17.393 L24.171,45.693 C24.002,47.014 22.877,48.006 21.544,48.006" fill="#E0E3DD"/>
      <path d="M22.385,44.981 L6.374,44.981 C5.626,44.981 4.937,44.731 4.412,44.315 L4.588,45.693 C4.757,47.014 5.882,48.006 7.215,48.006 L21.544,48.006 C22.877,48.006 24.002,47.014 24.171,45.693 L24.347,44.315 C23.822,44.731 23.133,44.981 22.385,44.981" fill="#B2B5B2"/>
      <path d="M23.277,18.854 L19.82,45.915 C19.779,46.236 19.68,46.536 19.537,46.81 L19.739,46.81 C20.956,46.81 21.984,45.904 22.138,44.696 L25.44,18.854 L23.277,18.854" fill="#FFFFFE"/>
    </g>
  </g>
</svg>
